<?xml version="1.0" standalone="no"?>
<!DOCTYPE svg PUBLIC "-//W3C//DTD SVG 20010904//EN"
 "http://www.w3.org/TR/2001/REC-SVG-20010904/DTD/svg10.dtd">
<svg version="1.0" xmlns="http://www.w3.org/2000/svg"
 width="512.000000pt" height="512.000000pt" viewBox="0 0 512.000000 512.000000"
 preserveAspectRatio="xMidYMid meet">

<g transform="translate(0.000000,512.000000) scale(0.100000,-0.100000)"
fill="#000000" stroke="none">
<path d="M0 3510 l0 -70 500 0 500 0 0 70 0 70 -500 0 -500 0 0 -70z"/>
<path d="M1140 3510 l0 -70 703 0 702 1 -35 30 c-19 16 -58 41 -87 54 -114 54
-123 55 -725 55 l-558 0 0 -70z"/>
<path d="M2840 3510 l0 -70 434 0 435 0 -19 53 c-10 28 -21 60 -25 70 -7 16
-36 17 -416 17 l-409 0 0 -70z"/>
<path d="M4284 3523 c-10 -32 -20 -64 -22 -70 -3 -10 88 -13 427 -13 l431 0 0
70 0 70 -408 0 -408 0 -20 -57z"/>
<path d="M0 3240 l0 -70 500 0 500 0 0 70 0 70 -500 0 -500 0 0 -70z"/>
<path d="M1140 3240 l0 -70 786 0 785 0 -6 23 c-4 12 -16 43 -27 70 l-20 47
-759 0 -759 0 0 -70z"/>
<path d="M2840 3240 l0 -70 481 0 c381 0 480 3 476 13 -2 6 -13 38 -23 70
l-18 57 -458 0 -458 0 0 -70z"/>
<path d="M4210 3306 c0 -2 -11 -33 -25 -70 l-25 -66 480 0 480 0 0 70 0 70
-455 0 c-250 0 -455 -2 -455 -4z"/>
<path d="M287 3033 c-4 -3 -7 -35 -7 -70 l0 -63 215 0 215 0 0 70 0 70 -208 0
c-115 0 -212 -3 -215 -7z"/>
<path d="M1420 2970 l0 -70 215 0 215 0 0 70 0 70 -215 0 -215 0 0 -70z"/>
<path d="M2250 2970 l0 -70 229 0 c182 0 230 3 234 13 3 8 8 39 12 70 l7 57
-241 0 -241 0 0 -70z"/>
<path d="M3130 2970 l0 -70 380 0 c209 0 380 4 380 8 0 4 -9 36 -21 70 l-21
62 -359 0 -359 0 0 -70z"/>
<path d="M4115 3030 c-6 -9 -45 -120 -45 -127 0 -1 173 -3 385 -3 l386 0 -3
68 -3 67 -357 3 c-228 1 -359 -1 -363 -8z"/>
<path d="M284 2756 c-3 -7 -4 -40 -2 -72 l3 -59 213 -3 212 -2 0 75 0 75 -210
0 c-169 0 -212 -3 -216 -14z"/>
<path d="M1422 2698 l3 -73 552 -3 551 -2 31 26 c29 24 91 105 91 118 0 3
-277 6 -615 6 l-616 0 3 -72z"/>
<path d="M3130 2695 l0 -75 213 2 212 3 5 55 5 55 18 -58 18 -57 381 2 381 3
21 60 21 60 3 -63 3 -62 212 2 212 3 0 70 0 70 -407 3 -407 2 -17 -55 c-10
-30 -20 -52 -23 -49 -3 3 -13 26 -22 52 l-16 47 -406 3 -407 2 0 -75z"/>
<path d="M284 2486 c-3 -7 -4 -40 -2 -72 l3 -59 213 -3 212 -2 0 75 0 75 -210
0 c-169 0 -212 -3 -216 -14z"/>
<path d="M1427 2493 c-4 -3 -7 -37 -7 -75 l0 -68 615 0 c338 0 615 3 615 6 0
13 -62 94 -90 118 l-32 26 -547 0 c-301 0 -551 -3 -554 -7z"/>
<path d="M3130 2425 l0 -75 213 2 212 3 0 70 0 70 -212 3 -213 2 0 -75z"/>
<path d="M3650 2491 c0 -5 11 -37 24 -72 l24 -64 285 -3 285 -2 21 62 c12 34
21 68 21 75 0 10 -65 13 -330 13 -183 0 -330 -4 -330 -9z"/>
<path d="M4410 2425 l0 -75 213 2 212 3 0 70 0 70 -212 3 -213 2 0 -75z"/>
<path d="M282 2153 l3 -68 213 -3 212 -2 0 70 0 70 -215 0 -216 0 3 -67z"/>
<path d="M1420 2150 l0 -70 215 0 215 0 0 70 0 70 -215 0 -215 0 0 -70z"/>
<path d="M2250 2150 l0 -70 241 0 241 0 -7 57 c-4 31 -9 62 -12 70 -4 10 -52
13 -234 13 l-229 0 0 -70z"/>
<path d="M3130 2150 l0 -70 213 2 212 3 3 68 3 67 -216 0 -215 0 0 -70z"/>
<path d="M3750 2212 c0 -4 9 -36 21 -70 l21 -62 190 2 190 3 19 50 c11 28 22
58 25 68 5 16 -10 17 -230 17 -130 0 -236 -4 -236 -8z"/>
<path d="M4410 2150 l0 -70 213 2 212 3 3 68 3 67 -216 0 -215 0 0 -70z"/>
<path d="M0 1880 l0 -70 500 0 500 0 0 70 0 70 -500 0 -500 0 0 -70z"/>
<path d="M1140 1880 l0 -70 759 0 759 0 20 48 c11 26 23 57 27 70 l6 22 -785
0 -786 0 0 -70z"/>
<path d="M2840 1880 l0 -70 360 0 360 0 0 70 0 70 -360 0 -360 0 0 -70z"/>
<path d="M3846 1928 c3 -13 14 -43 24 -68 l18 -45 95 -3 95 -3 21 63 c12 34
21 66 21 70 0 4 -63 8 -141 8 l-140 0 7 -22z"/>
<path d="M4410 1880 l0 -70 355 0 355 0 0 70 0 70 -355 0 -355 0 0 -70z"/>
<path d="M0 1610 l0 -70 500 0 500 0 0 70 0 70 -500 0 -500 0 0 -70z"/>
<path d="M1140 1610 l0 -70 558 0 c468 0 567 2 617 15 75 20 150 55 195 94
l35 30 -702 1 -703 0 0 -70z"/>
<path d="M2840 1610 l0 -70 360 0 360 0 0 70 0 70 -360 0 -360 0 0 -70z"/>
<path d="M3951 1628 c11 -29 22 -60 25 -68 4 -10 12 1 24 30 37 94 37 90 -18
90 l-50 0 19 -52z"/>
<path d="M4410 1610 l0 -70 355 0 355 0 0 70 0 70 -355 0 -355 0 0 -70z"/>
</g>
</svg>
